# xmcd
#
# Track frame offsets:
#	150
#	18379
#	33114
#	48563
#	65558
#	90979
#	107021
#	124157
#	139487
#	155508
#	176373
#	195824
#	213970
#	227924
#	239290
#	256955
#	269122
#	285428
#
# Disc length: 4175 seconds
#
# Revision: 4
# Processed by: cddbd v1.5.2PL0 Copyright (c) Steve Scherf et al.
# Submitted via: dBpowerAMP V4.0
#
DISCID=f9104d12
DTITLE=Various Artist - Cream Of Country, Vol. 10
DYEAR=2006
DGENRE=Country
TTITLE0=Brad Paisley - The World
TTITLE1=Martina McBride - (I Never Promised You A) Rose Garden
TTITLE2=Kenny Chesney - Summertime
TTITLE3=Carrie Underwood - Jesus, Take The Wheel
TTITLE4=Brooks and Dunn - Believe
TTITLE5=Alison Krauss and Union Station - A Living Prayer
TTITLE6=Josh Turner - Would You Go With Me
TTITLE7=Gretchen Wilson - Politically Uncorrect
TTITLE8=Alan Jackson - Like Red On A Rose
TTITLE9=Sara Evans - You'll Always Be My Baby
TTITLE10=Montgomery Gentry - Daddy Won't Sell The Farm
TTITLE11=Van Zant - Lovin' You
TTITLE12=Miranda Lambert - Kerosene
TTITLE13=Sonny James - Young Love
TTITLE14=Lonestar - Mountains
TTITLE15=Gretchen Wilson - I Don't Feel Like Loving You Today
TTITLE16=Sugarland - Something More
TTITLE17=Big and Rich - 8th Of November
EXTD=Corrected additional typos.
EXTT0=
EXTT1=
EXTT2=
EXTT3=
EXTT4=
EXTT5=
EXTT6=
EXTT7=
EXTT8=
EXTT9=
EXTT10=
EXTT11=
EXTT12=
EXTT13=
EXTT14=
EXTT15=
EXTT16=
EXTT17=
PLAYORDER=
